<?xml version="1.0" standalone="no"?>
<!DOCTYPE svg PUBLIC "-//W3C//DTD SVG 20010904//EN"
 "http://www.w3.org/TR/2001/REC-SVG-20010904/DTD/svg10.dtd">
<svg version="1.0" xmlns="http://www.w3.org/2000/svg"
 width="1200.000000pt" height="480.000000pt" viewBox="0 0 1200.000000 480.000000"
 preserveAspectRatio="xMidYMid meet">

<g transform="translate(0.000000,480.000000) scale(0.100000,-0.100000)"
fill="#000000" stroke="none">
<path d="M0 2400 l0 -2400 1819 0 1820 1 14 28 c11 22 11 28 1 28 -7 0 -11 -4
-8 -8 2 -4 0 -10 -6 -14 -6 -4 -8 -10 -6 -14 3 -4 -6 -7 -19 -7 -13 0 -21 4
-18 10 4 5 1 6 -7 1 -9 -6 -11 -4 -5 6 5 8 -1 6 -12 -4 -13 -11 -23 -14 -27
-8 -4 5 -1 13 4 16 8 5 5 14 -7 27 -9 11 -13 19 -8 18 21 -5 27 1 16 14 -8 10
-9 16 -1 21 6 3 8 10 5 15 -3 4 2 13 10 20 8 7 15 9 15 5 0 -5 9 0 20 10 11
10 17 22 14 27 -3 4 -2 7 3 6 4 -2 8 2 8 7 0 6 -3 9 -6 8 -3 -1 -6 4 -6 12 0
8 3 12 7 10 11 -7 41 31 33 40 -5 4 -2 5 5 1 7 -5 12 -1 13 11 0 11 3 13 6 5
3 -7 0 -19 -7 -26 -7 -9 -7 -16 -1 -20 5 -4 12 -2 16 4 4 6 12 7 18 3 9 -5 9
-3 0 8 -10 12 -10 18 0 29 10 10 9 11 -2 5 -9 -5 -7 2 5 18 30 41 82 65 134
62 25 -2 51 2 59 8 11 9 15 9 18 0 4 -10 10 -10 26 -2 16 9 23 8 33 -6 9 -12
27 -18 54 -18 27 0 44 -5 47 -14 3 -8 12 -12 19 -9 7 3 16 1 19 -4 3 -5 11 -7
19 -4 7 3 18 -7 24 -21 14 -31 25 -31 70 -3 31 19 35 20 44 5 5 -10 15 -17 22
-17 7 0 22 -17 33 -38 16 -30 18 -44 11 -72 -5 -19 -15 -39 -22 -45 -15 -12
-28 -57 -31 -102 l-2 -33 3859 0 3858 0 0 2400 0 2400 -2829 0 -2830 0 -3 -47
c-3 -41 -6 -48 -25 -51 -21 -3 -23 0 -23 47 l0 51 -40 0 c-43 0 -45 -4 -40
-73 1 -26 -1 -28 -27 -25 -23 2 -29 8 -31 34 -3 28 -7 32 -38 36 -19 2 -37 0
-40 -4 -3 -4 -18 -8 -35 -8 -27 0 -29 -3 -31 -37 -1 -21 -1 -66 1 -100 l2 -63
-35 0 c-33 0 -35 2 -38 38 -3 32 -6 37 -28 37 -26 0 -36 24 -39 93 -1 37 -26
71 -34 49 -3 -7 -6 -5 -6 6 -1 9 -6 17 -12 17 -6 0 -9 -7 -5 -15 5 -14 -5 -19
-59 -27 -13 -2 -21 -12 -23 -31 -3 -25 -1 -27 32 -27 34 0 36 -2 37 -32 1 -18
2 -45 3 -60 4 -43 -6 -49 -70 -46 -54 3 -59 5 -62 28 -5 35 -19 49 -42 43 -24
-6 -29 5 -32 77 l-3 55 58 -2 c50 -2 57 0 57 18 0 17 -8 19 -89 19 l-90 0 -3
-52 c-3 -51 -4 -53 -30 -52 -16 1 -59 2 -98 3 l-70 1 0 30 c0 28 3 30 35 30
28 0 35 4 35 20 0 20 -7 20 -2700 20 l-2700 0 0 -2400z m6267 2287 c22 -14 3
-57 -25 -53 -18 3 -27 28 -18 51 5 14 22 15 43 2z m-112 -74 c0 -6 3 -15 7
-19 15 -15 -12 -30 -47 -26 -29 3 -35 8 -35 27 0 13 6 25 12 27 24 8 63 2 63
-9z m51 -14 c1 -21 -6 -30 -17 -23 -6 3 -5 12 3 22 11 15 11 15 -4 4 -15 -12
-35 -2 -22 11 10 10 39 0 40 -14z m-6 -34 c0 4 6 3 13 -3 6 -5 22 -8 35 -6 19
3 22 -1 22 -26 0 -27 -3 -30 -30 -30 -28 0 -30 -3 -30 -35 0 -34 -2 -35 -36
-35 l-36 0 7 63 c8 71 20 93 41 76 8 -6 14 -8 14 -4z m-540 -41 l0 -34 70 0
70 0 0 -30 c0 -28 3 -30 35 -30 l36 0 -3 -67 c-3 -65 -4 -67 -30 -68 -24 -2
-28 2 -28 27 0 26 -3 28 -39 28 -35 0 -40 -3 -43 -27 -5 -47 -52 -37 -53 12 0
18 -8 20 -67 23 -68 3 -68 3 -68 32 0 27 3 30 31 30 29 0 30 2 27 37 -3 35 -5
38 -34 37 -31 -1 -33 3 -25 58 1 4 28 7 61 7 l60 -1 0 -34z m413 -33 c4 -1 7
-16 7 -35 0 -32 2 -35 28 -33 24 2 27 -2 30 -30 3 -32 2 -33 -37 -33 -22 0
-42 4 -46 10 -4 6 -15 6 -31 0 -14 -6 -38 -10 -53 -10 -24 0 -28 4 -27 28 1
23 6 27 34 30 29 3 32 6 32 37 0 33 12 45 40 39 8 -1 18 -3 23 -3z m3040 -251
c44 0 57 -3 57 -15 0 -8 7 -15 15 -15 7 0 18 -6 22 -14 4 -7 22 -17 38 -23 17
-5 30 -15 30 -22 0 -7 -13 -20 -30 -29 -16 -9 -31 -20 -33 -24 -2 -5 -12 -8
-23 -8 -12 0 -19 -7 -19 -20 0 -20 -5 -21 -112 -18 l-112 3 1 93 c1 50 2 95 2
98 1 4 25 4 54 0 28 -3 78 -6 110 -6z m-196 -85 c8 -22 0 -27 -31 -19 -30 7
-34 20 -8 27 30 8 32 7 39 -8z m2223 -340 c11 -13 7 -15 -25 -15 -32 0 -36 2
-25 15 7 8 18 15 25 15 7 0 18 -7 25 -15z m-90 -5 c0 -5 -7 -10 -15 -10 -8 0
-15 5 -15 10 0 6 7 10 15 10 8 0 15 -4 15 -10z m-3220 -425 l0 -425 1093 -2
1092 -3 3 -67 3 -68 59 0 60 0 0 -1085 0 -1085 -155 0 c-141 0 -155 -2 -156
-17 -5 -83 13 -265 36 -354 6 -26 5 -26 -67 -38 -40 -6 -212 -15 -383 -21
-174 -5 -384 -18 -480 -29 -93 -11 -215 -23 -270 -26 -55 -4 -113 -8 -130 -11
-16 -2 -106 -8 -200 -14 -192 -12 -354 -27 -420 -39 -25 -5 -45 -8 -46 -7 -2
4 -8 62 -13 141 -3 50 -10 133 -16 185 -5 52 -12 125 -15 163 l-7 67 -214 0
-214 0 0 75 0 75 -125 0 -125 0 0 130 0 130 -2557 0 c-1407 0 -2595 3 -2640 7
l-83 6 0 1368 0 1369 2985 0 2985 0 0 -425z m3150 395 c0 -11 -65 -24 -79 -15
-24 14 -9 25 34 25 25 0 45 -4 45 -10z m200 0 c0 -5 -7 -10 -15 -10 -8 0 -15
5 -15 10 0 6 7 10 15 10 8 0 15 -4 15 -10z m60 0 c0 -5 -7 -10 -16 -10 -8 0
-12 5 -9 10 3 6 10 10 16 10 5 0 9 -4 9 -10z m-350 -35 c0 -10 -10 -15 -30
-15 -20 0 -30 5 -30 15 0 10 10 15 30 15 20 0 30 -5 30 -15z m224 0 c3 -9 0
-15 -9 -15 -8 0 -15 7 -15 15 0 8 4 15 9 15 5 0 11 -7 15 -15z m196 0 c0 -8 7
-15 15 -15 8 0 15 -7 15 -15 0 -8 -7 -15 -15 -15 -8 0 -15 7 -15 15 0 8 -7 15
-15 15 -8 0 -15 7 -15 15 0 8 7 15 15 15 8 0 15 -7 15 -15z m-482 -33 c2 -7
-3 -12 -12 -12 -9 0 -16 7 -16 16 0 17 22 14 28 -4z m184 3 c0 -5 -5 -11 -11
-13 -6 -2 -11 4 -11 13 0 9 5 15 11 13 6 -2 11 -8 11 -13z m168 -9 c0 -7 -7
-13 -15 -13 -15 0 -20 18 -9 30 9 9 24 -2 24 -17z m-390 -47 c0 -20 -4 -29
-12 -26 -12 3 -19 43 -10 60 8 16 22 -6 22 -34z m580 0 c0 -20 -4 -29 -12 -27
-15 5 -22 33 -14 54 9 24 26 6 26 -27z m-420 21 c0 -5 -7 -10 -15 -10 -8 0
-15 5 -15 10 0 6 7 10 15 10 8 0 15 -4 15 -10z m-62 -28 c2 -7 -3 -12 -12 -12
-9 0 -16 7 -16 16 0 17 22 14 28 -4z m292 3 c0 -8 7 -15 15 -15 8 0 15 7 15
15 0 8 9 15 20 15 13 0 20 -7 20 -20 0 -11 7 -20 15 -20 8 0 15 -7 15 -15 0
-8 7 -15 15 -15 8 0 15 -7 15 -15 0 -8 9 -15 20 -15 11 0 20 -6 20 -14 0 -7
-9 -16 -20 -19 -23 -6 -27 -37 -5 -37 8 0 15 -7 15 -15 0 -8 -7 -15 -15 -15
-8 0 -15 -7 -15 -15 0 -8 -7 -15 -15 -15 -8 0 -15 7 -15 15 0 8 7 15 15 15 8
0 15 7 15 15 0 8 -7 15 -15 15 -8 0 -15 -7 -15 -15 0 -8 -7 -15 -15 -15 -8 0
-15 -7 -15 -15 0 -8 -9 -15 -20 -15 -11 0 -20 7 -20 15 0 8 -7 15 -15 15 -10
0 -15 -10 -15 -30 0 -20 5 -30 15 -30 8 0 15 -7 15 -15 0 -8 -5 -15 -10 -15
-6 0 -13 7 -16 15 -4 8 -12 15 -19 15 -7 0 -17 6 -23 13 -8 10 -30 11 -84 6
-40 -4 -76 -5 -80 -2 -14 8 -8 50 9 64 15 13 15 12 5 -8 -25 -46 -7 -70 28
-38 9 8 31 16 49 17 24 2 36 9 42 25 5 13 13 23 19 23 5 0 10 5 10 10 0 6 -7
10 -15 10 -8 0 -15 9 -15 20 0 11 7 20 15 20 8 0 15 7 15 15 0 8 -7 15 -15 15
-8 0 -15 9 -15 20 0 11 6 20 14 20 8 0 16 7 20 15 3 8 12 15 21 15 8 0 15 -7
15 -15z m127 -5 c3 -11 12 -20 19 -20 8 0 14 -7 14 -15 0 -8 -7 -15 -15 -15
-8 0 -15 7 -15 15 0 8 -7 15 -15 15 -8 0 -15 9 -15 20 0 11 5 20 11 20 6 0 13
-9 16 -20z m-547 -65 c0 -33 -4 -45 -15 -45 -11 0 -15 12 -15 45 0 33 4 45 15
45 11 0 15 -12 15 -45z m90 15 c0 -16 -4 -30 -10 -30 -5 0 -10 14 -10 30 0 17
5 30 10 30 6 0 10 -13 10 -30z m550 -20 c0 -41 -3 -48 -16 -43 -22 8 -17 93 7
93 5 0 9 -22 9 -50z m38 -92 c-3 -40 -5 -43 -35 -46 -36 -4 -46 16 -13 25 14
4 20 14 20 34 0 20 5 29 16 29 12 0 14 -9 12 -42z m-413 3 c3 -5 1 -12 -5 -16
-5 -3 -10 1 -10 9 0 18 6 21 15 7z m-175 -36 c0 -9 -9 -15 -25 -15 -16 0 -25
6 -25 15 0 9 9 15 25 15 16 0 25 -6 25 -15z m-10132 -27 c-1 -13 2 -24 7 -24
6 -1 9 2 8 6 -2 5 22 9 52 9 30 0 54 -3 52 -7 -1 -4 2 -9 7 -12 5 -3 10 5 11
17 3 36 12 37 39 8 41 -44 23 -54 -104 -54 -83 0 -111 4 -121 15 -10 12 -8 19
11 39 29 31 42 32 38 3z m10072 -33 c0 -25 -4 -45 -10 -45 -5 0 -10 20 -10 45
0 25 5 45 10 45 6 0 10 -20 10 -45z m100 24 c0 -5 -7 -9 -15 -9 -15 0 -20 12
-9 23 8 8 24 -1 24 -14z m60 -29 c0 -5 -13 -10 -30 -10 -16 0 -30 5 -30 10 0
6 14 10 30 10 17 0 30 -4 30 -10z m490 0 c0 -5 -7 -10 -15 -10 -8 0 -15 5 -15
10 0 6 7 10 15 10 8 0 15 -4 15 -10z m-160 -31 c0 -5 -7 -9 -15 -9 -8 0 -15 7
-15 15 0 9 6 12 15 9 8 -4 15 -10 15 -15z m120 -30 c0 -36 -4 -49 -12 -46 -23
7 -15 97 8 97 2 0 4 -23 4 -51z m-420 26 c0 -8 -4 -15 -9 -15 -13 0 -22 16
-14 24 11 11 23 6 23 -9z m-158 -30 c0 -5 -5 -11 -11 -13 -6 -2 -11 4 -11 13
0 9 5 15 11 13 6 -2 11 -8 11 -13z m193 -15 c0 -13 -6 -25 -12 -27 -9 -3 -13
6 -13 27 0 21 4 30 13 28 6 -3 12 -15 12 -28z m-10052 -6 c27 -5 37 -11 37
-25 0 -15 -7 -19 -35 -19 -19 0 -35 -4 -35 -9 0 -5 -9 -11 -19 -14 -21 -5 -22
-44 -2 -39 6 1 14 -5 17 -13 4 -9 19 -15 40 -15 40 0 45 -19 14 -50 -18 -18
-33 -20 -194 -20 -145 0 -175 2 -180 15 -3 8 -13 15 -21 15 -10 0 -15 7 -13
18 2 12 14 18 41 20 25 2 37 8 37 18 0 8 5 12 10 9 6 -3 13 1 16 10 9 23 -27
53 -67 57 -47 4 -53 35 -7 41 55 7 321 7 361 1z m9897 -9 c0 -8 -7 -15 -15
-15 -8 0 -15 7 -15 15 0 8 7 15 15 15 8 0 15 -7 15 -15z m450 -29 c0 -8 -7
-16 -15 -20 -8 -3 -15 -12 -15 -21 0 -8 -7 -15 -15 -15 -8 0 -15 7 -15 15 0 8
6 15 14 15 7 0 16 9 19 20 6 23 27 27 27 6z m60 -6 c0 -13 -5 -18 -15 -14 -16
7 -19 17 -8 27 12 13 23 7 23 -13z m-10805 -10 c3 -5 -1 -10 -9 -10 -9 0 -16
5 -16 10 0 6 4 10 9 10 6 0 13 -4 16 -10z m465 0 c0 -5 -4 -10 -10 -10 -5 0
-10 5 -10 10 0 6 5 10 10 10 6 0 10 -4 10 -10z m9920 -20 c0 -5 -7 -10 -15
-10 -8 0 -15 5 -15 10 0 6 7 10 15 10 8 0 15 -4 15 -10z m-10320 -19 c0 -11
-3 -12 -11 -4 -6 6 -19 9 -28 6 -12 -4 -13 -2 -3 4 20 15 42 11 42 -6z m365 9
c4 -6 -5 -10 -20 -10 -15 0 -24 4 -20 10 3 6 12 10 20 10 8 0 17 -4 20 -10z
m9895 -26 c0 -17 -22 -14 -28 4 -2 7 3 12 12 12 9 0 16 -7 16 -16z m-10326
-15 c-3 -5 -10 -7 -15 -3 -5 3 -7 10 -3 15 3 5 10 7 15 3 5 -3 7 -10 3 -15z
m461 12 c3 -5 1 -12 -5 -16 -5 -3 -10 1 -10 9 0 18 6 21 15 7z m9930 -61 c-3
-5 -10 -10 -16 -10 -5 0 -9 5 -9 10 0 6 7 10 16 10 8 0 12 -4 9 -10z m-10032
-95 c17 -24 17 -26 0 -49 -10 -14 -29 -26 -43 -28 -22 -3 -25 -8 -28 -50 -3
-40 -6 -48 -23 -48 -14 0 -19 -7 -19 -25 0 -18 -5 -25 -20 -25 -15 0 -20 7
-20 25 0 18 5 25 20 25 17 0 20 7 20 45 0 38 -3 45 -20 45 -12 0 -20 -7 -21
-17 -1 -10 -2 -29 -2 -43 -2 -18 -9 -26 -24 -28 -21 -3 -23 0 -23 47 0 50 -1
51 -30 51 -20 0 -30 5 -30 15 0 7 -7 18 -16 23 -14 8 -14 10 0 21 9 8 16 20
16 27 0 11 25 14 123 14 118 -1 123 -1 140 -25z m10283 -1935 c50 0 64 -3 64
-15 0 -11 11 -15 36 -15 27 0 37 -5 41 -20 3 -11 12 -20 19 -20 8 0 14 -9 14
-20 0 -11 -6 -20 -12 -20 -30 0 -58 13 -58 26 0 8 -9 14 -20 14 -13 0 -20 7
-20 20 0 18 -7 20 -54 20 -52 0 -54 -1 -60 -31 -6 -34 0 -53 15 -44 5 4 14 -6
19 -20 19 -51 15 -55 -56 -55 -57 0 -65 2 -62 18 2 9 13 18 25 20 17 3 21 10
21 38 0 27 -4 34 -19 34 -10 0 -19 -6 -19 -14 0 -8 -15 -17 -34 -20 -23 -5
-36 -13 -40 -29 -10 -37 -7 -47 13 -47 16 0 18 -8 18 -60 0 -42 -4 -60 -13
-60 -7 0 -16 -16 -20 -35 -7 -38 -29 -47 -37 -15 -3 11 -13 20 -22 20 -9 0
-19 -9 -22 -20 -3 -11 -12 -20 -19 -20 -11 0 -14 21 -14 95 0 88 1 95 20 95
16 0 20 7 20 35 0 25 4 35 16 35 9 0 18 9 21 19 3 11 13 21 24 24 10 3 19 12
19 21 0 12 10 16 35 16 29 0 35 4 35 21 0 19 4 21 31 15 17 -3 60 -6 95 -6z
m24 -85 c0 -8 -9 -15 -20 -15 -20 0 -26 11 -13 23 12 13 33 7 33 -8z m-10067
-84 c11 -1 17 -9 17 -26 0 -20 6 -27 30 -31 21 -5 30 -12 30 -25 0 -15 7 -19
35 -19 24 0 35 -5 35 -15 0 -9 9 -15 25 -15 20 0 25 -5 25 -25 0 -20 -5 -25
-25 -25 -16 0 -25 -6 -25 -15 0 -10 -11 -15 -35 -15 -28 0 -35 -4 -35 -20 0
-15 -8 -22 -29 -26 -23 -5 -31 -12 -33 -33 l-3 -26 -191 -3 -191 -2 2 162 c2
90 3 164 4 165 1 2 302 -3 364 -6z m-415 -158 c3 -29 0 -33 -20 -33 -13 0 -28
4 -34 9 -5 5 -20 11 -34 13 -14 1 -25 8 -25 13 0 6 11 12 25 13 14 2 29 7 33
11 5 5 18 8 30 7 17 -1 23 -8 25 -33z m10212 -83 c0 -29 -4 -40 -15 -40 -11 0
-15 11 -15 40 0 29 4 40 15 40 11 0 15 -11 15 -40z m110 -60 c0 -11 -7 -20
-15 -20 -9 0 -15 -9 -15 -21 0 -28 -34 -21 -38 9 -2 12 -10 22 -18 22 -8 0
-14 7 -14 15 0 11 12 15 50 15 43 0 50 -3 50 -20z m50 -75 c0 -8 -9 -15 -20
-15 -11 0 -20 7 -20 15 0 8 9 15 20 15 11 0 20 -7 20 -15z m-4637 -133 c49
-42 -12 -114 -71 -83 -23 12 -113 20 -107 10 3 -4 -10 -11 -30 -15 -61 -11
-98 44 -58 88 9 10 26 18 38 18 29 0 65 -32 65 -59 0 -17 6 -21 30 -21 24 0
30 4 30 21 0 22 13 39 45 56 20 12 29 10 58 -15z"/>
<path d="M6019 4418 c-5 -18 -6 -38 -1 -34 7 8 12 36 6 36 -2 0 -4 -1 -5 -2z"/>
<path d="M1900 3570 l0 -200 2945 0 2945 0 0 200 0 200 -2945 0 -2945 0 0
-200z m250 40 c57 -57 -31 -139 -90 -85 -40 36 -10 105 45 105 14 0 34 -9 45
-20z m184 4 c20 -20 21 -78 0 -94 -23 -20 -75 -16 -90 5 -19 25 -18 65 3 87
20 22 66 24 87 2z m190 -3 c26 -29 18 -83 -14 -98 -15 -7 -36 -10 -48 -6 -26
6 -56 57 -46 76 28 50 77 62 108 28z m5097 -5 c25 23 45 8 23 -17 -16 -18 -16
-20 0 -38 21 -23 4 -40 -20 -20 -12 10 -20 10 -35 1 -28 -18 -44 -4 -23 19 13
15 14 22 5 33 -19 22 -3 42 17 22 14 -14 17 -14 33 0z m-4834 -12 c2 -7 -8 -9
-27 -6 -18 3 -30 0 -30 -7 0 -6 8 -11 19 -11 24 0 45 -25 37 -46 -7 -18 -58
-16 -62 4 -1 7 0 8 3 2 8 -16 53 -12 53 5 0 9 -9 15 -24 15 -26 0 -39 21 -29
46 6 17 54 16 60 -2z m88 -24 c17 0 25 7 28 23 2 12 5 -3 5 -33 1 -42 -1 -50
-8 -32 -5 12 -18 22 -29 22 -12 0 -21 -8 -24 -22 -2 -13 -4 2 -4 32 0 30 2 45
4 33 3 -16 11 -23 28 -23z m151 16 c3 -13 4 -35 2 -47 -2 -19 -9 -24 -33 -24
-27 0 -30 4 -33 33 -5 47 3 62 32 62 19 0 27 -7 32 -24z m118 8 c4 -9 0 -24
-9 -34 -13 -14 -13 -18 3 -34 15 -15 15 -16 0 -11 -9 4 -19 13 -22 21 -8 21
-24 17 -29 -8 -2 -13 -5 1 -6 30 -1 51 0 52 28 52 18 0 31 -6 35 -16z m114 2
c-11 -8 -19 -28 -20 -52 l-1 -39 -4 39 c-3 22 -12 46 -21 53 -15 11 -12 12 23
12 35 0 38 -1 23 -13z m93 -76 c16 0 19 7 19 39 0 22 5 43 11 46 7 5 9 -9 7
-42 -3 -46 -4 -48 -33 -48 -29 0 -30 2 -31 45 l-1 45 4 -42 c3 -35 8 -43 24
-43z m149 75 c10 -13 10 -19 -3 -33 -15 -17 -15 -19 0 -35 10 -9 13 -17 7 -17
-5 0 -18 10 -29 23 l-20 22 -3 -22 c-2 -13 -8 -23 -13 -23 -10 0 -13 83 -2 93
12 12 50 7 63 -8z m103 -78 c27 -3 25 -4 -10 -5 l-43 -2 0 43 c0 59 14 70 18
14 3 -43 5 -46 35 -50z m191 87 c18 -7 23 -94 6 -94 -5 0 -10 9 -10 20 0 13
-7 20 -20 20 -14 0 -20 -7 -20 -22 0 -30 -13 -14 -15 19 -4 52 18 73 59 57z
m124 -8 c-12 -8 -18 -27 -18 -50 0 -22 -4 -35 -10 -31 -5 3 -10 21 -10 39 0
17 -5 37 -12 44 -9 9 -3 12 28 12 34 -1 37 -2 22 -14z m162 11 c0 -1 -23 -25
-51 -52 -58 -56 -58 -47 -1 15 32 34 52 48 52 37z m110 -12 c11 -13 8 -14 -19
-9 -30 6 -31 6 -31 -30 0 -28 4 -36 18 -36 10 0 23 5 30 12 9 9 12 9 12 0 0
-17 -48 -26 -65 -12 -18 15 -20 61 -3 78 16 16 43 15 58 -3z m118 3 c16 -16
16 -78 0 -79 -10 0 -10 -2 0 -6 6 -2 12 -9 12 -14 0 -5 -10 -4 -22 2 -13 7
-30 15 -38 19 -19 9 -25 57 -9 76 14 17 41 18 57 2z m76 -23 c4 -19 11 -35 16
-35 5 0 12 16 16 35 6 32 24 50 24 23 0 -16 -34 -87 -42 -88 -3 0 -9 14 -13
30 -4 17 -11 30 -16 30 -5 0 -9 9 -9 20 0 33 17 22 24 -15z m167 19 c11 -14 9
-20 -14 -40 -19 -16 -24 -26 -15 -28 7 -3 20 -7 28 -9 8 -3 -5 -6 -30 -6 l-45
-1 33 31 c41 38 41 53 1 45 -27 -5 -30 -4 -19 9 16 20 44 19 61 -1z m129 -4
c0 -11 -4 -20 -9 -20 -5 0 -12 -13 -16 -30 -4 -16 -11 -30 -16 -30 -11 0 -12
27 0 32 4 2 12 13 15 26 6 19 4 22 -18 22 -14 0 -28 5 -31 10 -4 6 10 10 34
10 34 0 41 -3 41 -20z m2778 -57 c3 -10 -15 -13 -67 -13 -57 0 -71 3 -71 15 0
13 12 15 67 13 42 -2 68 -8 71 -15z"/>
<path d="M2970 3554 c0 -31 3 -35 23 -32 17 2 23 11 25 36 3 29 1 32 -22 32
-23 0 -26 -4 -26 -36z"/>
<path d="M3090 3580 c0 -5 11 -10 25 -10 14 0 25 5 25 10 0 6 -11 10 -25 10
-14 0 -25 -4 -25 -10z"/>
<path d="M3450 3580 c0 -5 9 -10 20 -10 11 0 20 5 20 10 0 6 -9 10 -20 10 -11
0 -20 -4 -20 -10z"/>
<path d="M3750 3580 c0 -5 9 -10 20 -10 11 0 20 5 20 10 0 6 -9 10 -20 10 -11
0 -20 -4 -20 -10z"/>
<path d="M4260 3555 c0 -28 4 -35 20 -35 16 0 20 7 20 35 0 28 -4 35 -20 35
-16 0 -20 -7 -20 -35z"/>
<path d="M1900 2215 l0 -1115 2620 0 2620 0 0 930 0 930 325 0 325 0 0 185 0
185 -2945 0 -2945 0 0 -1115z m478 786 c20 -12 11 -55 -13 -59 -11 -2 -26 -11
-32 -20 -11 -13 -13 -7 -13 36 0 47 2 52 23 52 12 0 28 -4 35 -9z m109 1 c8
-5 12 -25 10 -50 -2 -43 -10 -54 -21 -27 -8 21 -34 19 -39 -2 -3 -10 -5 6 -6
35 -1 48 1 52 22 52 12 0 28 -4 34 -8z m127 -5 c28 -20 18 -69 -16 -81 -22 -8
-32 -6 -48 9 -25 23 -25 40 0 65 23 23 39 25 64 7z m113 6 c15 -6 13 -8 -12
-13 -24 -4 -30 -10 -30 -30 0 -20 6 -26 30 -30 21 -4 26 -8 17 -14 -23 -14
-61 3 -68 31 -5 20 -2 31 16 45 26 21 23 20 47 11z m113 -3 c0 -5 -9 -10 -20
-10 -11 0 -20 -4 -20 -10 0 -5 9 -10 20 -10 11 0 20 -4 20 -10 0 -5 -9 -10
-19 -10 -11 0 -23 -4 -26 -10 -3 -6 5 -10 19 -10 14 0 28 -4 31 -10 4 -6 -8
-10 -29 -10 l-36 0 0 50 c0 49 1 50 30 50 17 0 30 -4 30 -10z m100 0 c12 -8 9
-10 -12 -10 -34 0 -36 -12 -5 -25 30 -14 29 -49 -2 -53 -13 -2 -28 1 -34 7 -8
8 -3 11 16 11 15 0 27 5 27 10 0 6 -4 10 -8 10 -5 0 -17 6 -27 14 -16 12 -17
16 -6 30 15 18 29 20 51 6z m105 1 c3 -5 -7 -11 -22 -13 l-28 -4 28 -14 c30
-14 36 -47 11 -57 -8 -3 -25 -1 -37 5 -21 10 -21 11 6 11 15 1 27 6 27 11 0 6
-4 10 -8 10 -5 0 -17 6 -27 14 -16 12 -17 16 -6 30 15 18 46 21 56 7z m169 -4
c28 -20 18 -69 -16 -81 -53 -19 -91 47 -46 78 27 19 39 20 62 3z m113 5 c7 -4
11 -26 10 -49 -1 -38 -3 -41 -17 -28 -22 20 -38 19 -43 -2 -3 -10 -5 6 -6 35
-1 48 1 52 22 52 12 0 27 -4 34 -8z m73 -48 c0 -24 -4 -44 -10 -44 -5 0 -10
23 -10 51 0 31 4 48 10 44 6 -3 10 -26 10 -51z m100 46 c0 -5 -11 -10 -25 -10
-14 0 -25 -4 -25 -10 0 -5 11 -10 25 -10 14 0 25 -4 25 -10 0 -5 -11 -10 -25
-10 -14 0 -25 -4 -25 -10 0 -5 11 -10 24 -10 14 0 28 -4 31 -10 4 -6 -8 -10
-29 -10 l-36 0 0 50 c0 49 1 50 30 50 17 0 30 -4 30 -10z m110 -27 c0 15 5 27
10 27 6 0 10 -20 10 -45 0 -25 -3 -45 -7 -45 -5 0 -20 14 -35 32 l-27 33 -1
-34 c0 -44 -11 -34 -12 11 -1 62 1 64 32 28 l29 -35 1 28z m120 27 c0 -5 -7
-10 -15 -10 -11 0 -16 -12 -17 -42 l-1 -43 -4 43 c-3 28 -9 42 -19 42 -8 0
-14 5 -14 10 0 6 16 10 35 10 19 0 35 -4 35 -10z m100 0 c0 -5 -11 -10 -25
-10 -14 0 -25 -4 -25 -10 0 -5 9 -10 20 -10 11 0 20 -4 20 -10 0 -5 -9 -10
-20 -10 -11 0 -20 -4 -20 -10 0 -5 11 -10 25 -10 14 0 25 -5 25 -11 0 -6 -14
-9 -32 -7 -29 3 -33 7 -36 36 -2 19 -1 40 2 48 6 16 66 19 66 4z m108 -6 c12
-8 22 -22 22 -31 0 -26 -31 -53 -62 -53 -27 0 -28 2 -28 50 0 45 2 50 23 50
12 0 33 -7 45 -16z m173 6 c26 -15 26 -66 -2 -80 -37 -20 -64 -9 -67 28 -2 19
-1 40 2 48 6 16 39 18 67 4z m119 -36 c23 -53 25 -63 8 -46 -7 7 -21 12 -33
12 -12 0 -26 -5 -33 -12 -9 -9 -12 -9 -12 0 0 15 38 92 46 92 2 0 14 -21 24
-46z m110 36 c0 -5 -4 -10 -10 -10 -5 0 -10 -18 -10 -40 0 -22 -4 -40 -10 -40
-5 0 -10 18 -10 40 0 30 -4 40 -16 40 -8 0 -12 5 -9 10 3 6 19 10 36 10 16 0
29 -4 29 -10z m100 -30 c23 -45 27 -71 8 -52 -7 7 -21 12 -33 12 -12 0 -26 -5
-33 -12 -7 -7 -12 -9 -12 -6 0 12 39 98 44 98 3 0 15 -18 26 -40z m163 13 c8
-16 18 -39 22 -53 6 -20 5 -23 -6 -12 -7 6 -22 12 -34 12 -12 0 -27 -6 -34
-12 -11 -11 -12 -8 -6 12 9 30 34 80 40 80 2 0 11 -12 18 -27z m127 -10 c0 15
5 27 10 27 6 0 10 -20 10 -45 0 -53 -10 -57 -42 -12 l-23 32 -6 -35 c-5 -30
-7 -27 -7 20 l-1 55 29 -35 29 -35 1 28z m120 -3 c23 -45 27 -71 8 -52 -7 7
-21 12 -33 12 -12 0 -26 -5 -33 -12 -7 -7 -12 -9 -12 -6 0 12 39 98 44 98 3 0
15 -18 26 -40z m91 -40 c10 0 19 -4 19 -10 0 -5 -11 -10 -25 -10 -24 0 -25 3
-23 53 1 50 2 50 5 10 3 -35 8 -43 24 -43z m104 55 c18 22 17 19 -4 -37 l-15
-37 -12 32 c-6 18 -15 41 -19 52 -5 16 -3 15 14 -5 20 -25 20 -25 36 -5z m110
16 c3 -5 -7 -11 -22 -13 l-28 -4 28 -14 c27 -13 36 -43 16 -55 -5 -4 -22 -3
-37 1 -27 8 -27 8 8 14 l35 6 -27 14 c-26 12 -36 38 -21 53 10 10 41 8 48 -2z
m105 0 c0 -5 -5 -11 -11 -13 -6 -2 -12 -18 -14 -36 -4 -49 -15 -52 -15 -4 0
31 -4 42 -15 42 -8 0 -15 5 -15 10 0 6 16 10 35 10 19 0 35 -4 35 -9z m106
-34 l7 -32 17 40 18 40 11 -28 c6 -16 11 -33 11 -38 0 -22 18 2 24 32 3 18 9
29 12 26 9 -8 -16 -97 -26 -97 -5 0 -13 15 -20 33 l-12 32 -14 -32 c-17 -40
-22 -41 -34 -8 -18 48 -23 78 -12 71 6 -3 14 -21 18 -39z m151 -34 c-2 -16 -4
-3 -4 27 0 30 2 43 4 28 2 -16 2 -40 0 -55z m103 67 c0 -5 -4 -10 -10 -10 -5
0 -10 -18 -10 -40 0 -22 -4 -40 -10 -40 -5 0 -10 18 -10 40 0 29 -4 40 -15 40
-8 0 -15 5 -15 10 0 6 16 10 35 10 19 0 35 -4 35 -10z m62 -31 c18 -11 47 3
51 25 2 11 5 -4 5 -34 1 -42 -1 -50 -8 -32 -6 14 -18 22 -34 22 -18 0 -26 -6
-29 -22 -2 -13 -4 2 -4 32 -1 30 2 46 4 35 3 -11 10 -23 15 -26z m198 31 c13
-8 13 -13 -2 -40 -14 -25 -15 -30 -3 -30 8 0 15 -4 15 -10 0 -5 -13 -10 -30
-10 -35 0 -38 10 -10 35 27 24 25 45 -2 45 -19 0 -20 2 -8 10 19 12 21 12 40
0z m-3519 -179 c5 7 9 17 9 22 0 4 4 7 10 7 5 0 4 -14 -4 -32 -8 -18 -17 -42
-21 -53 -6 -17 -8 -15 -19 15 -30 80 -29 77 -6 51 18 -21 23 -22 31 -10z m124
19 c-3 -5 -15 -10 -26 -10 -10 0 -19 -4 -19 -10 0 -5 9 -10 20 -10 11 0 20 -4
20 -10 0 -5 -9 -10 -20 -10 -11 0 -20 -4 -20 -10 0 -5 11 -10 25 -10 14 0 25
-4 25 -10 0 -5 -16 -10 -35 -10 l-35 0 0 50 0 50 36 0 c21 0 33 -4 29 -10z
m105 -30 c23 -45 27 -71 8 -52 -7 7 -21 12 -33 12 -12 0 -26 -5 -33 -12 -9 -9
-12 -9 -12 0 0 15 38 92 45 92 3 0 14 -18 25 -40z m117 32 c6 -4 11 -26 10
-49 -2 -37 -4 -40 -18 -27 -21 19 -39 18 -39 -2 0 -8 -4 -12 -10 -9 -11 7 -14
78 -3 88 9 9 45 9 60 -1z m108 -1 c3 -5 -7 -11 -22 -13 l-28 -4 28 -14 c46
-23 26 -70 -24 -55 -29 9 -23 26 6 19 16 -4 25 -2 25 6 0 6 -9 14 -20 17 -19
5 -27 33 -13 46 10 10 41 8 48 -2z m166 -1 c39 -21 16 -90 -30 -90 -14 0 -51
37 -51 50 0 13 37 50 51 50 6 0 19 -5 30 -10z m119 0 c0 -5 -11 -10 -25 -10
-14 0 -25 -4 -25 -10 0 -5 9 -10 20 -10 11 0 20 -4 20 -10 0 -5 -9 -10 -19
-10 -12 0 -21 -8 -24 -22 -2 -13 -5 1 -6 30 -1 51 -1 52 29 52 17 0 30 -4 30
-10z m150 0 c0 -5 -11 -10 -25 -10 -14 0 -25 -4 -25 -10 0 -5 9 -10 20 -10 11
0 20 -4 20 -10 0 -5 -9 -10 -20 -10 -11 0 -20 -4 -20 -10 0 -5 11 -10 25 -10
14 0 25 -5 25 -11 0 -6 -14 -9 -32 -7 -29 3 -33 7 -36 36 -2 19 -1 40 2 48 6
16 66 19 66 4z m90 -5 c7 9 15 13 18 10 3 -2 -1 -12 -8 -20 -10 -12 -10 -21
-1 -41 16 -35 14 -40 -8 -20 -16 15 -19 15 -31 1 -18 -22 -23 -12 -9 19 10 20
10 29 1 38 -20 20 -13 32 7 14 16 -15 19 -15 31 -1z m131 -1 c16 -20 1 -48
-30 -52 -11 -2 -21 -10 -21 -18 0 -8 -4 -12 -10 -9 -5 3 -10 26 -10 51 0 42 1
44 29 44 16 0 34 -7 42 -16z m104 6 c-3 -5 -15 -10 -26 -10 -10 0 -19 -4 -19
-10 0 -5 9 -10 20 -10 11 0 20 -4 20 -10 0 -5 -9 -10 -20 -10 -11 0 -20 -4
-20 -10 0 -5 11 -10 25 -10 14 0 25 -4 25 -10 0 -5 -16 -10 -35 -10 l-35 0 0
50 0 50 36 0 c21 0 33 -4 29 -10z m102 2 c7 -4 11 -26 10 -49 -1 -38 -3 -41
-17 -28 -22 20 -38 19 -43 -2 -3 -10 -5 6 -6 35 -1 48 1 52 22 52 12 0 27 -4
34 -8z m73 -42 c0 -21 -4 -42 -10 -45 -6 -4 -10 13 -10 45 0 32 4 49 10 45 6
-3 10 -24 10 -45z m100 40 c0 -5 -9 -10 -20 -10 -27 0 -25 -18 3 -23 l22 -4
-22 -8 c-31 -10 -29 -25 2 -25 14 0 25 -4 25 -10 0 -5 -16 -10 -35 -10 l-35 0
0 50 c0 49 1 50 30 50 17 0 30 -4 30 -10z m110 -22 c0 18 5 32 10 32 11 0 14
-83 3 -93 -3 -4 -19 8 -34 25 l-28 33 -1 -33 c0 -20 -4 -31 -10 -27 -12 7 -14
78 -3 89 5 4 20 -7 35 -25 l28 -33 0 32z m125 23 c3 -5 -7 -11 -22 -13 -22 -2
-28 -8 -28 -28 0 -20 6 -26 30 -31 24 -5 27 -7 12 -14 -21 -9 -67 19 -67 42 0
36 58 70 75 44z m110 -1 c-3 -5 -15 -10 -26 -10 -10 0 -19 -4 -19 -10 0 -5 9
-10 20 -10 11 0 20 -4 20 -10 0 -5 -9 -10 -20 -10 -11 0 -20 -4 -20 -10 0 -5
11 -10 25 -10 14 0 25 -4 25 -10 0 -5 -16 -10 -35 -10 l-35 0 0 50 0 50 36 0
c21 0 33 -4 29 -10z m-1445 -330 l0 -50 -185 0 -185 0 0 -45 0 -45 140 0 140
0 0 -45 0 -45 45 0 45 0 0 -45 0 -45 -45 0 -45 0 0 -50 0 -50 -185 0 -185 0 0
50 0 50 185 0 185 0 0 45 0 45 -140 0 -140 0 0 45 0 45 -45 0 -45 0 0 45 0 45
45 0 45 0 0 50 0 50 185 0 185 0 0 -50z m510 0 l0 -50 45 0 45 0 0 -186 0
-185 -42 3 -43 3 -3 48 -3 48 -137 -3 -137 -3 -3 -47 -3 -48 -45 0 -44 0 0
185 0 185 45 0 45 0 0 43 c0 24 3 47 7 50 3 4 66 7 140 7 l133 0 0 -50z m325
-135 l0 -180 -47 -3 -48 -3 0 186 0 186 48 -3 47 -3 0 -180z m366 163 c1 -27
1 -305 0 -330 -1 -14 -10 -18 -46 -18 l-45 0 0 -50 0 -51 -137 3 -138 3 -3 48
-3 47 140 0 141 0 0 178 c0 98 3 182 7 185 3 4 24 7 45 7 32 0 38 -3 39 -22z
m511 -25 l3 -48 48 -3 48 -3 -3 -87 -3 -87 -47 -3 -48 -3 0 -44 0 -44 48 -3
47 -3 0 -45 0 -45 -45 0 -45 0 -3 48 -3 47 -134 0 -134 0 -3 -47 -3 -48 -45 0
-45 0 -3 220 c-1 121 0 225 2 232 4 10 49 13 185 13 l180 0 3 -47z m606 -5 l3
-48 45 0 44 0 -2 -182 -3 -183 -45 0 -45 0 -3 48 -3 47 -134 0 -134 0 -3 -47
-3 -48 -45 0 -45 0 -3 182 -2 182 47 3 48 3 3 48 3 48 137 -3 137 -3 3 -47z
m600 0 l3 -48 45 0 44 0 0 -45 0 -45 -45 0 -45 0 0 -45 0 -45 45 0 45 0 0 -45
0 -45 -44 0 -45 0 -3 -47 -3 -48 -185 0 -185 0 -3 220 c-1 121 0 225 3 232 3
11 45 13 187 11 l183 -3 3 -47z m322 -43 l0 -96 138 3 137 3 3 93 3 92 44 0
45 0 0 -235 0 -235 -45 0 -45 0 0 95 0 95 -140 0 -139 0 -3 -92 -3 -93 -42 -3
-43 -3 0 235 0 236 45 0 45 0 0 -95z m-3240 -620 l0 -45 -185 0 -185 0 0 -45
0 -45 140 0 140 0 0 -45 c0 -36 -4 -45 -17 -46 -10 0 -70 -2 -133 -3 -63 -2
-118 -4 -122 -4 -5 -1 -8 -42 -8 -92 l0 -90 -45 0 -45 0 0 230 0 230 230 0
230 0 0 -45z m420 0 l0 -45 -45 0 -45 0 0 -140 0 -140 45 0 45 0 0 -45 0 -45
-140 0 -140 0 0 45 0 45 45 0 45 0 0 140 0 140 -45 0 -45 0 0 45 0 45 140 0
140 0 0 -45z m510 0 l0 -45 45 0 45 0 0 -90 c0 -73 -3 -90 -15 -91 -8 -1 -27
-1 -42 -2 l-28 -1 -3 92 -3 92 -139 0 -140 0 0 -90 0 -90 140 0 140 0 0 -50 0
-50 45 0 45 0 0 -45 0 -45 -45 0 -45 0 0 45 0 45 -140 0 -140 0 0 -45 0 -45
-45 0 -45 0 0 230 0 230 185 0 185 0 0 -45z m320 -45 l0 -90 95 0 95 0 0 45 0
45 45 0 45 0 0 45 0 45 45 0 45 0 0 -45 0 -45 -45 0 -45 0 0 -45 0 -45 -45 0
-45 0 0 -44 0 -45 43 -3 42 -3 3 -47 3 -48 45 0 44 0 0 -45 0 -45 -45 0 -45 0
0 45 0 45 -45 0 -45 0 0 45 c0 25 -3 46 -7 47 -21 4 -150 6 -165 1 -16 -4 -18
-17 -18 -94 l0 -89 -45 0 -45 0 0 230 0 230 45 0 45 0 0 -90z m970 45 l0 -45
-185 0 -185 0 0 -45 0 -45 140 0 140 0 0 -45 c0 -29 -4 -45 -12 -46 -7 0 -62
-1 -123 -1 -146 0 -147 0 -143 -51 l3 -42 183 -3 182 -2 0 -45 0 -45 -230 0
-230 0 0 230 0 230 230 0 230 0 0 -45z"/>
<path d="M2332 2973 c4 -20 18 -26 37 -14 18 12 5 31 -20 31 -14 0 -19 -6 -17
-17z"/>
<path d="M2440 2976 c0 -8 5 -18 10 -21 13 -8 42 14 34 26 -9 15 -44 10 -44
-5z"/>
<path d="M2554 2975 c-10 -25 4 -45 30 -45 27 0 42 26 25 46 -15 19 -48 18
-55 -1z"/>
<path d="M3154 2975 c-10 -25 4 -45 30 -45 27 0 42 26 25 46 -15 19 -48 18
-55 -1z"/>
<path d="M3282 2973 c4 -20 18 -26 37 -14 18 12 5 31 -20 31 -14 0 -19 -6 -17
-17z"/>
<path d="M3890 2960 c0 -27 3 -31 23 -28 16 2 22 10 22 28 0 18 -6 26 -22 28
-20 3 -23 -1 -23 -28z"/>
<path d="M4060 2960 c0 -25 4 -30 24 -30 28 0 42 26 25 46 -6 8 -20 14 -30 14
-14 0 -19 -7 -19 -30z"/>
<path d="M4195 2970 c-8 -13 -1 -24 14 -19 6 3 7 10 2 18 -6 10 -10 10 -16 1z"/>
<path d="M4406 2965 c-3 -9 0 -15 9 -15 16 0 20 16 6 24 -5 3 -11 -1 -15 -9z"/>
<path d="M4576 2965 c-3 -9 0 -15 9 -15 16 0 20 16 6 24 -5 3 -11 -1 -15 -9z"/>
<path d="M4816 2965 c-3 -9 0 -15 9 -15 16 0 20 16 6 24 -5 3 -11 -1 -15 -9z"/>
<path d="M2556 2813 c-11 -11 -6 -23 9 -23 8 0 15 4 15 9 0 13 -16 22 -24 14z"/>
<path d="M2660 2815 c0 -11 7 -15 23 -13 12 2 22 8 22 13 0 6 -10 11 -22 13
-16 2 -23 -2 -23 -13z"/>
<path d="M2924 2815 c-10 -25 4 -45 30 -45 25 0 44 30 31 50 -10 15 -55 12
-61 -5z"/>
<path d="M3420 2815 c0 -8 9 -15 20 -15 11 0 20 7 20 15 0 8 -9 15 -20 15 -11
0 -20 -7 -20 -15z"/>
<path d="M3630 2814 c0 -10 7 -14 22 -12 32 5 35 28 4 28 -17 0 -26 -5 -26
-16z"/>
<path d="M2980 2370 l0 -90 140 0 140 0 0 90 0 90 -140 0 -140 0 0 -90z"/>
<path d="M4190 2370 l0 -90 135 0 135 0 0 90 0 90 -135 0 -135 0 0 -90z"/>
<path d="M4790 2370 l0 -90 135 0 135 0 0 90 0 90 -135 0 -135 0 0 -90z"/>
<path d="M5390 2415 l0 -45 140 0 140 0 0 45 0 45 -140 0 -140 0 0 -45z"/>
<path d="M5390 2235 l0 -45 140 0 140 0 0 45 0 45 -140 0 -140 0 0 -45z"/>
<path d="M7180 2720 l0 -200 509 0 c500 0 509 0 514 -20 5 -20 0 -20 -509 -20
l-514 0 0 -825 0 -825 317 2 317 3 -2 130 c-2 72 -10 204 -18 295 -20 212 -21
233 -6 238 7 2 26 25 44 50 46 68 141 181 153 181 6 1 27 -19 47 -43 l37 -44
-42 -28 c-23 -16 -53 -31 -66 -34 -29 -6 -39 -28 -16 -36 10 -4 30 5 53 23 20
16 47 35 60 42 22 12 21 10 -8 -42 -33 -59 -38 -87 -15 -87 9 0 15 9 15 21 0
21 39 99 49 99 3 0 15 -14 26 -30 11 -16 26 -30 33 -30 18 0 15 8 -18 50 -17
21 -30 42 -29 47 1 4 1 18 0 31 -1 26 -21 30 -21 5 -1 -13 -13 -4 -40 27 -45
51 -47 59 -22 90 l19 23 16 -24 c10 -13 17 -34 17 -46 0 -13 5 -23 10 -23 6 0
10 5 10 11 0 6 14 -1 31 -15 48 -41 71 -32 83 34 4 24 -2 60 -19 115 -31 101
-31 106 3 138 34 33 37 33 93 5 34 -18 63 -23 123 -24 77 -1 79 -2 92 -30 l13
-29 -5 27 c-5 23 2 35 52 81 57 53 58 54 62 118 2 45 -1 70 -11 83 -14 19 -15
19 -47 -4 -37 -26 -90 -105 -90 -133 0 -29 -17 -11 -44 49 l-26 56 42 49 c22
27 44 49 47 49 3 0 24 16 46 35 22 19 71 51 109 71 85 45 107 43 219 -22 214
-125 237 -146 257 -241 10 -45 9 -52 -22 -108 l-32 -60 -12 40 c-6 22 -17 40
-25 40 -19 0 -24 -34 -6 -48 33 -26 28 -79 -16 -187 -9 -23 -11 -20 -26 39
-17 65 -35 87 -47 56 -4 -8 0 -23 8 -33 8 -9 20 -35 25 -57 6 -22 12 -44 14
-50 2 -5 -5 -40 -15 -77 l-18 -66 -31 10 c-18 5 -40 12 -49 15 -13 4 -18 0
-18 -15 0 -17 7 -21 43 -24 38 -3 42 -5 40 -29 -1 -14 -6 -44 -12 -67 l-12
-41 -49 29 c-42 25 -50 27 -61 14 -15 -18 -9 -25 25 -28 31 -4 76 -32 76 -49
0 -6 -6 -32 -14 -57 -11 -39 -17 -45 -42 -48 -61 -6 -74 -20 -74 -81 0 -55 0
-55 17 -31 27 41 76 90 84 84 11 -6 23 20 39 81 14 55 32 75 66 75 21 0 28
-14 60 -111 3 -9 -14 -41 -39 -75 -24 -32 -49 -69 -56 -81 -16 -32 -31 -29
-31 7 0 17 -4 30 -8 30 -4 0 -24 -18 -44 -39 -30 -33 -38 -51 -48 -113 -13
-78 -31 -118 -55 -118 -9 0 -20 11 -25 24 -5 13 -13 26 -17 29 -12 8 -7 111 6
115 14 5 15 112 1 112 -5 0 -10 -4 -10 -10 0 -5 -4 -10 -9 -10 -5 0 -12 28
-16 63 -4 34 -11 69 -17 77 -7 12 -8 11 -4 -5 3 -11 8 -47 12 -80 l7 -59 -34
28 c-65 55 -180 90 -165 50 3 -9 6 -24 6 -33 0 -10 18 -39 40 -63 31 -36 53
-50 100 -64 37 -12 60 -25 61 -34 0 -8 2 -22 4 -31 6 -33 -9 -40 -48 -24 -46
19 -57 19 -57 0 0 -18 -12 -19 -28 -3 -6 6 -14 9 -17 6 -3 -3 26 -24 65 -47
l70 -42 -15 -29 c-8 -16 -15 -39 -15 -51 0 -33 55 -112 88 -127 16 -7 47 -28
69 -47 l41 -35 36 45 c20 24 43 50 49 57 21 21 47 84 47 113 0 29 -27 95 -44
107 -6 4 -26 8 -43 8 -36 0 -39 6 -21 45 11 24 28 34 28 17 0 -10 115 -9 145
1 12 4 33 31 48 62 l27 55 -55 0 c-31 0 -71 -7 -90 -14 -47 -20 -45 -7 14 79
39 57 52 70 72 68 13 -2 47 -5 74 -9 l50 -6 28 51 c15 28 27 53 27 56 0 9 -53
5 -93 -6 -22 -6 -41 -8 -44 -6 -2 3 23 39 57 80 l61 75 44 -13 c33 -10 45 -11
48 -2 3 7 13 29 21 50 l17 38 -36 -7 c-20 -3 -35 -2 -35 4 0 5 22 30 50 56 27
26 50 50 50 54 0 3 -21 -15 -47 -41 l-48 -46 -1 67 c0 68 -27 149 -49 146 -5
-1 -19 -21 -31 -44 -18 -36 -27 -43 -55 -46 -19 -2 -56 1 -82 7 -39 9 -47 15
-42 28 4 9 14 35 22 58 l14 41 72 12 c94 16 97 17 97 35 0 17 -40 21 -56 6
-14 -14 -94 -31 -94 -20 0 5 14 37 31 71 l31 61 45 -7 c25 -3 63 -6 83 -6 26
0 46 -8 69 -27 29 -26 30 -30 21 -65 -11 -38 -2 -94 19 -128 15 -22 21 -9 27
61 6 55 3 69 -16 102 -17 29 -19 37 -7 37 10 0 13 8 11 28 -2 15 4 0 15 -33
l18 -60 18 43 c23 56 28 49 11 -16 -8 -29 -12 -52 -10 -52 2 0 23 12 47 26
l42 25 -33 -28 c-30 -26 -45 -52 -22 -38 6 3 10 2 10 -4 0 -6 -13 -17 -29 -25
-32 -17 -39 -31 -50 -99 -6 -32 -5 -45 2 -38 7 7 25 2 56 -13 84 -43 123 -50
193 -36 l62 12 37 -39 36 -39 8 -204 c4 -113 9 -223 10 -245 2 -22 4 -116 4
-208 l1 -168 73 3 72 3 3 822 2 823 -832 2 c-784 3 -833 4 -836 21 -3 16 42
17 832 17 l836 0 -2 198 -3 197 -1397 3 -1398 2 0 -200z m2590 45 c12 -14 15
-14 32 2 14 12 21 14 30 5 9 -9 7 -16 -5 -30 -16 -17 -16 -20 -2 -32 12 -10
13 -16 3 -27 -10 -12 -13 -12 -27 1 -13 14 -17 14 -33 -1 -14 -13 -21 -14 -30
-5 -9 9 -8 16 5 29 15 15 15 18 1 34 -9 10 -13 23 -9 28 9 15 20 14 35 -4z
m-140 -70 c0 -12 -13 -15 -60 -15 -47 0 -60 3 -60 15 0 12 13 15 60 15 47 0
60 -3 60 -15z m-290 -266 c0 -17 -20 -49 -30 -49 -14 0 -12 34 2 48 15 15 28
15 28 1z m-39 -95 c-5 -16 -10 -21 -10 -12 -1 18 10 51 15 45 2 -1 -1 -16 -5
-33z m159 -78 c0 -8 -8 -22 -17 -32 -17 -17 -18 -17 -21 0 -2 9 -1 24 2 32 7
18 36 18 36 0z m-163 -28 c-3 -8 -6 -5 -6 6 -1 11 2 17 5 13 3 -3 4 -12 1 -19z
m278 -8 c3 -5 -5 -20 -18 -32 -13 -13 -29 -32 -35 -43 -10 -17 -11 -15 -5 15
9 51 42 86 58 60z m-397 -66 c-13 -28 -28 -32 -28 -6 0 9 -3 28 -7 41 -6 23
-6 23 20 6 23 -14 24 -20 15 -41z m-739 -36 c17 -39 30 -72 28 -74 -1 -2 -25
8 -52 21 -28 13 -57 25 -65 25 -8 0 -22 5 -30 10 -12 8 -8 16 25 50 21 22 44
40 51 40 6 0 25 -32 43 -72z m824 -2 c10 -15 13 -27 7 -31 -11 -7 -100 4 -100
12 0 3 9 18 21 34 23 33 44 29 72 -15z m144 22 c-3 -8 -6 -5 -6 6 -1 11 2 17
5 13 3 -3 4 -12 1 -19z m273 -23 c0 -17 -9 -29 -28 -39 -16 -8 -35 -22 -42
-31 -7 -9 -23 -21 -34 -27 -16 -9 -14 -3 9 23 17 19 37 49 44 67 17 40 51 45
51 7z m140 -58 c0 -18 -21 -37 -40 -37 -19 0 -23 31 -6 42 18 12 46 9 46 -5z
m-80 -66 c0 -17 -75 -44 -134 -47 l-61 -4 67 15 c37 7 80 20 95 28 15 8 29 15
31 16 1 1 2 -3 2 -8z m-224 -119 c-8 -9 -19 -13 -22 -9 -10 9 16 38 28 31 6
-4 4 -13 -6 -22z m63 -26 l23 -24 -59 -4 c-32 -2 -60 -2 -63 -1 -6 5 53 52 66
53 6 0 21 -11 33 -24z m-458 -102 c56 -17 56 -17 68 -69 7 -29 18 -61 26 -71
8 -11 15 -22 15 -26 0 -4 -24 -35 -52 -70 l-53 -63 -7 68 c-5 50 -14 80 -34
110 -27 41 -27 41 -42 19 -14 -21 -62 -32 -62 -14 0 9 31 105 36 110 6 8 67
-45 75 -65 5 -13 15 -23 24 -23 29 0 15 28 -37 75 -55 48 -54 49 43 19z m-106
-161 c-4 -10 -9 -35 -12 -55 -5 -32 -9 -38 -30 -38 -24 0 -25 2 -18 38 7 41
30 72 53 72 9 0 12 -6 7 -17z m-138 -507 c-4 -9 -11 -16 -17 -16 -11 0 -14 33
-3 44 11 10 26 -11 20 -28z"/>
<path d="M8661 1965 c-16 -14 -43 -53 -60 -86 l-30 -59 -25 52 c-27 54 -26 47
3 -29 8 -23 13 -44 10 -47 -2 -3 -29 6 -59 21 -68 32 -119 39 -145 20 -20 -15
-20 -16 5 -42 33 -36 91 -65 170 -85 52 -13 66 -21 72 -41 4 -15 5 -8 2 18 -5
39 -3 43 25 57 50 26 81 91 81 169 0 36 -4 68 -9 71 -5 4 -23 -5 -40 -19z"/>
<path d="M8728 1680 c-25 -22 -53 -58 -62 -80 -19 -47 -31 -45 -41 6 -3 20 -9
34 -12 31 -2 -3 3 -31 12 -62 9 -32 14 -59 11 -62 -2 -3 -20 7 -38 21 -65 49
-150 70 -187 47 -38 -24 100 -129 190 -146 l36 -7 -1 39 c-1 31 3 39 20 41 11
2 27 -4 34 -13 19 -22 27 -19 54 23 18 28 26 57 31 120 4 45 5 82 2 82 -2 0
-25 -18 -49 -40z"/>
<path d="M9365 1601 c-3 -17 -11 -33 -16 -36 -5 -4 -9 -13 -9 -22 0 -13 10
-15 58 -10 63 5 114 25 109 41 -7 20 -53 46 -93 52 -41 6 -42 5 -49 -25z"/>
<path d="M8256 1573 c-12 -12 -6 -43 9 -43 8 0 15 9 15 19 0 21 -13 34 -24 24z"/>
<path d="M8101 1464 c-33 -27 -42 -64 -16 -64 8 0 15 7 15 15 0 25 38 55 70
55 23 0 35 -8 55 -37 14 -21 25 -41 25 -45 0 -5 -20 -8 -45 -8 -32 0 -47 -5
-52 -16 -10 -27 12 -38 41 -19 19 12 38 16 66 12 35 -4 40 -2 40 14 0 10 -4
19 -9 19 -5 0 -25 23 -45 50 -33 45 -40 50 -75 50 -28 0 -49 -8 -70 -26z"/>
<path d="M8316 1431 c-4 -7 -5 -15 -2 -18 9 -9 19 4 14 18 -4 11 -6 11 -12 0z"/>
<path d="M9245 1367 c-31 -54 -31 -57 1 -51 46 8 104 36 104 50 0 13 -48 44
-69 44 -6 0 -22 -20 -36 -43z"/>
<path d="M8320 1303 c0 -12 75 -122 83 -123 12 0 -55 119 -70 124 -7 3 -13 2
-13 -1z"/>
<path d="M9125 1148 c-7 -18 -11 -35 -9 -37 7 -7 54 42 54 56 0 26 -31 12 -45
-19z"/>
<path d="M11150 3620 c0 -5 7 -10 15 -10 8 0 15 5 15 10 0 6 -7 10 -15 10 -8
0 -15 -4 -15 -10z"/>
<path d="M733 3233 c-13 -14 -20 -29 -18 -33 7 -11 42 -1 55 15 11 14 53 9 45
-5 -3 -5 -13 -6 -23 -3 -10 2 -25 -3 -33 -13 -13 -16 -12 -17 15 -10 20 5 32
3 37 -6 7 -10 9 -9 9 5 0 10 8 17 18 17 10 0 21 3 25 6 9 10 -4 34 -19 34 -8
0 -14 5 -14 10 0 6 -17 10 -37 9 -28 0 -44 -7 -60 -26z"/>
<path d="M6250 385 c0 -15 4 -24 10 -20 6 3 10 12 10 20 0 8 -4 17 -10 20 -6
4 -10 -5 -10 -20z"/>
<path d="M6433 394 c-3 -8 -1 -20 6 -27 8 -8 11 -4 11 16 0 30 -7 35 -17 11z"/>
<path d="M5960 4785 c0 -9 9 -15 23 -15 14 0 24 6 24 15 0 9 -10 15 -24 15
-14 0 -23 -6 -23 -15z"/>
<path d="M3641 236 c-8 -9 -8 -16 -2 -20 5 -4 13 -2 16 4 5 8 11 8 20 0 9 -8
15 -8 20 0 3 5 4 11 1 11 -3 1 -9 2 -13 3 -5 1 -13 5 -19 9 -7 4 -17 0 -23 -7z"/>
<path d="M4213 239 c-9 -9 -6 -21 10 -50 26 -46 34 -48 47 -14 7 20 6 32 -6
50 -18 27 -34 31 -51 14z"/>
<path d="M3625 180 c-21 -21 -43 -38 -49 -37 -5 1 -10 -2 -11 -8 0 -5 -4 -15
-8 -22 -4 -6 -3 -15 3 -18 8 -5 8 -11 0 -20 -8 -10 -8 -15 0 -20 8 -5 7 -12
-2 -23 -9 -12 -6 -11 10 2 23 20 30 32 10 20 -7 -4 -8 -3 -4 5 6 8 12 9 20 2
7 -6 17 -7 21 -3 5 4 5 1 1 -6 -4 -7 -13 -9 -19 -5 -7 4 -6 -1 2 -10 11 -13
17 -15 28 -6 7 7 11 14 8 17 -3 3 1 12 8 20 10 13 9 14 -3 7 -9 -5 -8 0 4 13
11 12 15 22 11 22 -5 0 -4 5 3 12 9 9 9 15 0 26 -16 18 -19 44 -6 36 7 -5 8
-2 3 6 -5 9 -4 11 4 6 9 -6 9 -11 1 -21 -7 -8 -7 -15 -1 -19 5 -4 12 -2 16 4
3 5 3 10 -1 10 -3 0 -1 6 5 14 8 10 8 16 -2 24 -10 9 -22 3 -52 -28z m10 -32
c-4 -56 -15 -80 -31 -67 -8 6 -14 8 -14 4 0 -4 -7 -2 -15 5 -11 9 -12 16 -5
25 5 6 6 16 2 20 -4 5 -2 5 4 2 6 -4 22 5 34 18 13 14 24 25 25 25 1 0 1 -15
0 -32z"/>
<path d="M3595 130 c-16 -16 -27 -30 -24 -31 2 0 12 -2 21 -4 21 -4 32 11 34
43 0 12 0 22 -1 22 -1 0 -14 -13 -30 -30z m21 -7 c-2 -9 -11 -17 -20 -19 -17
-2 -17 -2 0 17 21 23 23 23 20 2z"/>
</g>
</svg>
